<svg id="mode_freehandshape" xmlns="http://www.w3.org/2000/svg" viewBox="0 0 48 48"><defs><style>.cls-1{fill:none;}</style></defs><title>mode_freehandshape</title><path d="M26.33,28.46a11.7,11.7,0,0,1-11.1,17.14c-1.33-.09-1.18-2.38.15-2.29A9.41,9.41,0,0,0,24.44,29.8ZM17.7,24.18a9.41,9.41,0,0,0-12,13.47L3.8,39a11.7,11.7,0,0,1,16-16.27Z"/><path class="cls-1" d="M-3,1H45V49H-3V1Z"/><path d="M39.07,3.74L44,8.67l-4.25,4.25L35,8.18l4-4.44m-9,9.47,4.67,4.67L9.67,43H5V38.33L30.12,13.21m9-11.47a2,2,0,0,0-1.41.59l-5.4,5.92,7.5,7.5,5.66-5.66a2,2,0,0,0,0-2.82L40.48,2.32a2,2,0,0,0-1.41-.59h0Zm-9,8.64L3,37.5V45h7.5L37.62,17.88l-7.5-7.5h0Z"/><path class="cls-1" d="M-3,1H45V49H-3V1Z"/></svg>