<?xml version="1.0" encoding="UTF-8" standalone="no"?>
<!-- Created with Inkscape (http://www.inkscape.org/) -->

<svg
   xmlns:dc="http://purl.org/dc/elements/1.1/"
   xmlns:cc="http://creativecommons.org/ns#"
   xmlns:rdf="http://www.w3.org/1999/02/22-rdf-syntax-ns#"
   xmlns:svg="http://www.w3.org/2000/svg"
   xmlns="http://www.w3.org/2000/svg"
   xmlns:inkscape="http://www.inkscape.org/namespaces/inkscape"
   version="1.1"
   width="512"
   height="512"
   viewBox="0 0 512 512"
   id="svg2"
   xml:space="preserve"><metadata
     id="metadata36"><rdf:RDF><cc:Work
         rdf:about=""><dc:format>image/svg+xml</dc:format><dc:type
           rdf:resource="http://purl.org/dc/dcmitype/StillImage" /></cc:Work></rdf:RDF></metadata><defs
     id="defs34" /><g
     id="mode_x5F_createlistofpoints"><g
       id="g5"><circle
         cx="140"
         cy="255.99899"
         r="35"
         id="circle7"
         style="fill:#ff0000" /><path
         d="m 140,228.999 c 14.888,0 27,12.113 27,27 0,14.889 -12.112,27.002 -27,27.002 -14.888,0 -27,-12.113 -27,-27.002 0,-14.887 12.112,-27 27,-27 m 0,-13 c -22.092,0 -40,17.91 -40,40 0,22.092 17.908,40.002 40,40.002 22.092,0 40,-17.91 40,-40.002 0,-22.09 -17.908,-40 -40,-40 l 0,0 z"
         inkscape:connector-curvature="0"
         id="path9" /></g><g
       id="g11"><circle
         cx="256"
         cy="255.99899"
         r="35"
         id="circle13"
         style="fill:#ff0000" /><path
         d="m 256,228.999 c 14.888,0 27,12.113 27,27 0,14.889 -12.112,27.002 -27,27.002 -14.888,0 -27,-12.113 -27,-27.002 0,-14.887 12.112,-27 27,-27 m 0,-13 c -22.092,0 -40,17.91 -40,40 0,22.092 17.908,40.002 40,40.002 22.092,0 40,-17.91 40,-40.002 0,-22.09 -17.908,-40 -40,-40 l 0,0 z"
         inkscape:connector-curvature="0"
         id="path15" /></g><g
       id="g17"><circle
         cx="372"
         cy="255.99899"
         r="35"
         id="circle19"
         style="fill:#ff0000" /><path
         d="m 372,228.999 c 14.888,0 27,12.113 27,27 0,14.889 -12.112,27.002 -27,27.002 -14.888,0 -27,-12.113 -27,-27.002 0,-14.887 12.112,-27 27,-27 m 0,-13 c -22.092,0 -40,17.91 -40,40 0,22.092 17.908,40.002 40,40.002 22.092,0 40,-17.91 40,-40.002 0,-22.09 -17.908,-40 -40,-40 l 0,0 z"
         inkscape:connector-curvature="0"
         id="path21" /></g><g
       id="g23"><path
         d="m 102.972,366.431 c -10.842,0 -19.593,-1.099 -26.257,-3.296 -6.667,-2.197 -11.755,-7.179 -15.271,-14.941 -2.345,-5.421 -3.811,-12.051 -4.395,-19.885 -0.587,-7.838 -0.845,-15.018 -0.769,-21.533 0.072,-6.517 -0.33,-12.927 -1.208,-19.227 -0.879,-6.297 -3.406,-11.68 -7.581,-16.15 -4.175,-4.467 -10.293,-7.504 -18.347,-9.118 v -16.479 c 8.202,-1.902 14.392,-5.126 18.567,-9.668 4.175,-4.539 6.664,-9.96 7.471,-16.26 0.803,-6.296 1.133,-12.707 0.989,-19.226 -0.147,-6.516 0.034,-13.623 0.549,-21.313 0.512,-7.69 2.087,-14.245 4.724,-19.666 3.808,-7.763 9.043,-12.744 15.71,-14.941 6.664,-2.197 15.271,-3.296 25.818,-3.296 v 16.699 c -6.887,0 -12.342,1.174 -16.37,3.516 -4.031,2.345 -6.667,5.421 -7.91,9.229 -1.246,3.811 -2.053,8.096 -2.417,12.854 -0.367,4.762 -0.295,9.596 0.22,14.502 0.512,4.91 0.474,9.634 -0.11,14.172 -1.026,10.986 -2.894,19.116 -5.603,24.39 -2.712,5.273 -7.217,11.062 -13.513,17.358 6.296,6.152 10.801,11.865 13.513,17.139 2.709,5.273 4.577,13.331 5.603,24.17 0.583,4.542 0.622,9.266 0.11,14.172 -0.515,4.906 -0.587,9.778 -0.22,14.612 0.364,4.834 1.171,9.118 2.417,12.854 1.243,3.734 3.879,6.773 7.91,9.118 4.027,2.341 9.482,3.516 16.37,3.516 v 16.698 z"
         inkscape:connector-curvature="0"
         id="path25"
         style="fill:#009900" /></g><g
       id="g27"><path
         d="m 408.744,349.731 c 6.887,0 12.342,-1.175 16.369,-3.516 4.031,-2.345 6.668,-5.384 7.91,-9.118 1.246,-3.736 2.054,-8.021 2.418,-12.854 0.367,-4.834 0.295,-9.706 -0.221,-14.612 -0.512,-4.906 -0.473,-9.63 0.11,-14.172 1.026,-10.839 2.894,-18.896 5.603,-24.17 2.713,-5.273 7.217,-10.986 13.514,-17.139 -6.297,-6.296 -10.801,-12.085 -13.514,-17.358 -2.709,-5.273 -4.576,-13.403 -5.603,-24.39 -0.583,-4.539 -0.622,-9.263 -0.11,-14.172 0.516,-4.906 0.588,-9.74 0.221,-14.502 -0.364,-4.758 -1.172,-9.043 -2.418,-12.854 -1.242,-3.808 -3.879,-6.884 -7.91,-9.229 -4.027,-2.341 -9.482,-3.516 -16.369,-3.516 V 141.43 c 10.547,0 19.154,1.099 25.818,3.296 6.667,2.197 11.902,7.179 15.71,14.941 2.637,5.421 4.212,11.975 4.724,19.666 0.516,7.69 0.697,14.797 0.55,21.313 -0.145,6.52 0.186,12.93 0.988,19.226 0.807,6.3 3.296,11.721 7.471,16.26 4.175,4.542 10.365,7.766 18.567,9.668 v 16.479 c -8.055,1.614 -14.173,4.651 -18.348,9.118 -4.175,4.471 -6.701,9.854 -7.58,16.15 -0.879,6.3 -1.281,12.71 -1.209,19.227 0.076,6.516 -0.182,13.695 -0.769,21.533 -0.584,7.834 -2.05,14.464 -4.395,19.885 -3.516,7.763 -8.604,12.744 -15.271,14.941 -6.664,2.197 -15.416,3.296 -26.258,3.296 v -16.698 z"
         inkscape:connector-curvature="0"
         id="path29"
         style="fill:#009900" /></g></g><g
     id="Ebene_1" /></svg>